<svg xmlns="http://www.w3.org/2000/svg" viewBox="82.3658 82.3658 1490.8618 228.8858" uri="https://cdn.sanity.io/images/fnx611yr/productionv2/ec4e2c357ab5d72f6e6b5652b60060fc08def20a-1491x229.svg?w=1920&amp;auto=format" data-style="1gtebw4-m85f3o 1gtebw4-1med1n 1gtebw4-fs0igi 1x4n0lj-uipiwb 1gtebw4-m85f3o 1gtebw4-1med1n 1gtebw4-fs0igi 1x4n0lj-uipiwb 896xuz-uipiwb 1x4n0lj-uipiwb" sx="[object Object]" data-component-config="{}"><g fill="white" stroke="white" id="Williams"><g fill="white" stroke="white"><path d="M1219.17,160.23h29.15v-12.62c0-3-2.43-5.44-5.43-5.44h-23.72v18.06Z" fill="white" stroke="white"/><path d="M1090.1,142.18l-16.04,20.06h8.91s-20.61,25.78-20.61,25.78v-45.83s-21.01,0-21.01,0c-5.97,0-10.94,3.17-13.27,6.08l-34.31,42.9v-48.98h-34.54v101.28h33.03l35.56-44.51v44.51s24.21,0,24.21,0c5.39-.09,10.14-1.86,15.02-8.02l74.63-93.26h-51.58Z" fill="white" stroke="white"/><path d="M1469.31,164.6c-7.09-2.46-15.24-3.04-22.94-1.64-7.05,1.29-13.54,4.76-18.97,8.97-1.85-1.94-4.06-3.6-6.59-4.96-3.41-1.84-7.33-3.68-11.64-4.29-5.36-.76-11.1-.5-16.58.75-3.05.69-5.9,2.27-8.49,3.48v-3.18h-29.15v79.72h29.15v-43.78c0-8.33,6.3-12.13,12.15-12.13,3.09,0,5.94,1.02,8.04,2.87,2.45,2.16,3.74,5.36,3.74,9.26v43.78h29.15v-43.78c-.08-8.25,5.45-12.13,12.05-12.13,2.98,0,5.73,1.07,7.74,2.87,2.37,2.13,3.62,5.37,3.62,9.26v43.78h29.14l.03-52.78c0-5.88-2.04-11.38-5.88-15.91-3.56-4.19-8.59-8.1-14.56-10.17" fill="white" stroke="white"/><rect x="1184.02" y="142.18" width="29.15" height="101.28" fill="white" stroke="white"/><rect x="1219.17" y="165.23" width="29.15" height="78.22" fill="white" stroke="white"/><rect x="1148.87" y="142.18" width="29.15" height="101.28" fill="white" stroke="white"/><polygon points="1113.73 185.15 1113.73 243.45 1142.88 243.45 1142.88 165.23 1129.66 165.23 1113.73 185.15" fill="white" stroke="white"/><path d="M1319.8,168.98c-2.29-1.47-4.55-2.62-7.12-3.66-5.24-2.11-10.77-3.07-16.45-3.07h-.24s-.01,0-.01,0c-5.8.03-11.41,1.06-16.7,3.26-5.09,2.12-9.65,5.14-13.56,8.98-3.9,3.82-6.96,8.26-9.09,13.2-2.2,5.1-3.32,10.51-3.32,16.09,0,5.59,1.12,11.03,3.35,16.14,2.15,4.95,5.23,9.4,9.15,13.23,3.94,3.84,8.53,6.85,13.64,8.96,5.31,2.19,10.96,3.3,16.78,3.3s11.21-1.07,16.45-3.18c2.52-1.02,4.86-2.21,7.12-3.66v4.86h29.15v-79.72h-29.15s0,5.25,0,5.25ZM1318.58,203.41c0,8.89-8.09,16.12-18.03,16.12-9.94,0-18.03-7.23-18.03-16.12,0-4.29,1.86-8.32,5.24-11.36,3.37-3.03,7.85-4.72,12.62-4.76h.17c9.94,0,18.03,7.23,18.03,16.12" fill="white" stroke="white"/><path d="M1572.39,218.14c-.03,7.45-3.6,15.09-10.43,19.48-7.8,5.01-18.12,7.76-29.06,7.77-17.81,0-37.87-8.31-38.1-27.05v-2.99h30.31s-.04,1.54.45,2.74c1.01,2.5,4.57,4.96,8.17,4.96,4.43,0,8.17-2.03,8.17-4.43,0-1.31-.53-1.76-1.65-2.22-1.82-.75-4.89-1.28-8.36-1.71-7.29-.9-17.21-2.52-26.26-8.33l-.13-.09c-3.41-2.39-5.94-4.94-7.72-7.79-2-3.19-3.01-6.74-3.01-10.57,0-7.4,4.07-14.06,11.47-18.76,3.55-2.26,7.77-4.02,12.52-5.21,4.79-1.21,10.01-1.71,15.52-1.71h.1c3.97.09,8.2.53,12.22,1.49,4.47,1.06,8.53,2.56,12.06,4.46,4.05,2.18,7.25,4.81,9.51,7.81,2.57,3.41,3.87,7.25,3.87,11.39v3.13h-32.25s.22-2.16-.66-3.48c-.46-.73-2.05-2.08-5.3-2.08-2.38,0-3.66.33-4.67.95-.52.32-1.12.86-1.12,2.27,0,.8.2,1.66,2.66,2.68,2.52,1.05,6.3,1.8,10.68,2.68,6.86,1.37,13.64,2.22,21.07,6.01l.11.06s.1.06.11.07c7.19,4.01,9.77,10.12,9.74,18.48" fill="white" stroke="white"/></g></g><g fill="white" stroke="white" id="F1_Team_Right"><g fill="white" stroke="white"><path d="M1319.84,269.7h26.24v4.84h-20.49v11.2h18.07v4.74h-18.07v16h-5.75v-36.79Z" fill="white" stroke="white"/><path d="M1355.97,269.7h16.5v36.79h-5.65v-31.94h-10.85v-4.84Z" fill="white" stroke="white"/><path d="M1402.14,269.7h31.24v4.84h-12.72v31.94h-5.75v-31.94h-12.77v-4.84Z" fill="white" stroke="white"/><path d="M1443.93,269.7h26.64v4.79h-20.89v10.85h18.72v4.64h-18.72v11.66h22.4v4.84h-28.16v-36.79Z" fill="white" stroke="white"/><path d="M1496.26,269.7h6.71l14.94,36.79h-6.06l-3.63-9.08h-17.31l-3.58,9.08h-5.95l14.89-36.79ZM1506.36,292.76l-4.44-11.4c-.81-2.07-1.67-4.24-2.32-6.46-.66,2.27-1.46,4.34-2.32,6.46l-4.44,11.4h13.52Z" fill="white" stroke="white"/><path d="M1527.81,269.7h9.54l5.75,16.3c1.36,3.89,2.67,7.67,4.04,12.01,1.31-4.19,2.78-8.22,4.09-12.01l5.8-16.3h9.39v36.79h-5.65v-24.78c0-2.17,0-4.69.05-7.27-.76,2.42-1.82,5.55-2.83,8.38l-8.73,23.67h-4.34l-8.73-23.67c-.96-2.72-1.92-5.5-2.83-8.38-.05,2.52-.05,4.84,0,7.27v24.78h-5.55v-36.79Z" fill="white" stroke="white"/></g><path d="M1384.56,273.53c0,2.34-1.79,3.91-4.05,3.91s-4.07-1.56-4.07-3.91,1.8-3.91,4.07-3.91,4.05,1.56,4.05,3.91ZM1383.82,273.53c0-1.94-1.42-3.23-3.31-3.23s-3.33,1.27-3.32,3.23c0,1.94,1.43,3.22,3.32,3.22s3.31-1.26,3.31-3.22ZM1382.33,275.33v.14h-.9c-.05-.06-.08-.25-.08-.44v-.58c0-.3-.14-.49-.52-.5h-1.06v1.52h-.82v-3.91h1.97c.84,0,1.35.42,1.36,1.09,0,.47-.28.83-.71.96.45.11.62.32.62.75v.66c0,.18.05.29.15.31ZM1381.41,272.77c0-.34-.24-.51-.6-.52h-1.05v1.03h1.05c.4,0,.6-.2.6-.52Z" fill="white" stroke="white"/></g><g fill="white" stroke="white" id="Atlassian_and_Spear"><path d="M891.59,196.82c0,41.9,2.87,106.53,3.17,113.67h.81c.29-7.14,3.17-71.77,3.17-113.67,0-41.9-2.87-106.53-3.17-113.67h-.81c-.3,7.14-3.17,71.77-3.17,113.67Z" fill="white" stroke="white"/><g fill="white" stroke="white"><path d="M723.04,165.31h-23.85l-27.09,78.01h20.81l3.84-13.15c4.64,1.36,9.59,2.19,14.52,2.19s9.84-.82,14.51-2.19l3.84,13.15h20.81l-27.38-78.01ZM711.23,215.95c-3.56,0-6.83-.54-9.85-1.37l9.85-33.93,9.85,33.93c-3.02.83-6.57,1.37-9.85,1.37Z" fill="white" stroke="white"/><path d="M443.86,165.31h-23.85l-27.37,78.01h20.8l3.84-13.15c4.64,1.36,9.59,2.19,14.52,2.19s9.85-.82,14.51-2.19l3.84,13.15h20.81l-27.1-78.01ZM431.8,215.95c-3.56,0-6.83-.54-9.85-1.37l9.85-33.93,9.85,33.93c-3.02.83-6.29,1.37-9.85,1.37Z" fill="white" stroke="white"/><path d="M242.15,165.31h-23.85l-27.1,78.01h20.81l3.84-13.15c4.64,1.36,9.59,2.19,14.52,2.19s9.85-.82,14.52-2.19l3.84,13.15h20.8c-.28,0-27.38-78.01-27.38-78.01ZM230.09,215.95c-3.56,0-6.83-.54-9.85-1.37l9.85-33.93,9.85,33.93c-3.02.83-6.29,1.37-9.85,1.37Z" fill="white" stroke="white"/><polygon points="268.65 165.29 328.6 165.29 328.6 181.99 306.97 181.99 306.97 243.33 288.64 243.33 288.64 182.02 268.65 182.02 268.65 165.31 268.65 165.29" fill="white" stroke="white"/><polygon points="360.36 165.31 360.36 226.36 385.26 226.36 379.51 243.33 342.28 243.33 342.28 165.31 360.36 165.31" fill="white" stroke="white"/><path d="M618.73,220.07c0,14.51-8.74,24.36-30.37,24.36-15.6,0-23.82-3.56-30.11-6.57v-18.62c7.94,4.64,19.98,8.2,30.11,8.2,8.77,0,11.5-2.45,11.5-6.57s-2.73-6.03-15.05-8.77c-21.06-4.1-26.27-13.12-26.27-24.62,0-14.23,10.39-23,30.66-23,10.67,0,19.72,2.19,25.73,5.21v17.79c-8.48-3.84-17.25-6.58-26.27-6.58-7.4,0-11.5,1.91-11.5,6.29,0,3.56,2.73,6.01,13.95,8.48,20.52,4.38,27.64,10.67,27.64,24.36v.03Z" fill="white" stroke="white"/><rect x="639.51" y="165.31" width="18.07" height="78.01" fill="white" stroke="white"/><polygon points="789.53 165.31 808.4 200.89 814.69 215.66 814.69 165.31 831.11 165.31 831.11 243.33 810.31 243.33 786.77 199.53 779.94 183.93 779.94 243.33 763.23 243.33 763.23 165.31 789.53 165.31" fill="white" stroke="white"/><path d="M482.97,187.2c0,11.5,5.21,20.52,26.27,24.62,12.32,2.73,15.06,4.64,15.06,8.77s-2.73,6.57-11.5,6.57c-10.13,0-22.17-3.56-30.11-8.2v18.62c6.29,3.02,14.51,6.57,30.11,6.57,21.89,0,30.37-9.85,30.37-24.08" fill="white" stroke="white"/><path d="M543.19,220.33c0-13.69-7.12-19.98-27.64-24.36-11.22-2.47-13.95-4.92-13.95-8.48,0-4.38,4.1-6.29,11.5-6.29,9.02,0,17.79,2.73,26.27,6.57v-17.79c-6.03-3.02-15.06-5.21-25.73-5.21-20.26,0-30.65,8.77-30.65,23" fill="white" stroke="white"/><g fill="white" stroke="white"><path d="M171.63,238.02l-40.94-81.88c-.8-1.77-1.6-2.09-2.58-2.09-.8,0-1.77.34-2.73,1.94-5.8,9.18-8.38,19.83-8.38,30.94,0,15.47,7.89,29.98,19.49,53.34,1.29,2.58,2.27,3.07,4.51,3.07h28.36c2.09,0,3.22-.8,3.22-2.42,0-.8-.15-1.29-.98-2.92l.03.03Z" fill="white" stroke="white"/><path d="M112.15,199.34c-3.22-4.84-4.2-5.15-5-5.15s-1.29.33-2.73,3.22l-20.47,40.92c-.65,1.29-.8,1.78-.8,2.42,0,1.29,1.14,2.58,3.56,2.58h28.85c1.93,0,3.38-1.62,4.2-4.66.98-3.87,1.29-7.24,1.29-11.29,0-11.29-5-22.25-8.87-28.05l-.03.02Z" fill="white" stroke="white"/></g></g></g></svg>